<svg xmlns="http://www.w3.org/2000/svg" width="60.88" height="60.88" viewBox="0 0 60.88 60.88">
  <g id="Grupo_13" data-name="Grupo 13" transform="translate(-531 -1918)">
    <text id="_" data-name="!" transform="translate(556 1960)" fill="#4a89dc" font-size="35" font-family="Archivo-SemiBoldItalic, Archivo" font-weight="600" font-style="italic"><tspan x="0" y="0">!</tspan></text>
    <g id="Caminho_1" data-name="Caminho 1" transform="translate(531 1918)" fill="none">
      <path d="M30.44,0A30.44,30.44,0,1,1,0,30.44,30.44,30.44,0,0,1,30.44,0Z" stroke="none"/>
      <path d="M 30.44018363952637 2.000003814697266 C 26.59990310668945 2.000003814697266 22.87555313110352 2.751682281494141 19.3705940246582 4.234153747558594 C 15.98419189453125 5.666473388671875 12.94248199462891 7.717391967773438 10.32993316650391 10.32993316650391 C 7.717391967773438 12.94248199462891 5.666473388671875 15.98419189453125 4.234153747558594 19.3705940246582 C 2.751682281494141 22.87555313110352 2.000003814697266 26.59990310668945 2.000003814697266 30.44018363952637 C 2.000003814697266 34.28046417236328 2.751682281494141 38.00481414794922 4.234153747558594 41.50977325439453 C 5.666473388671875 44.89617156982422 7.717391967773438 47.93788146972656 10.32993316650391 50.55043411254883 C 12.94248199462891 53.16297149658203 15.98419189453125 55.21389389038086 19.3705940246582 56.64621353149414 C 22.87555313110352 58.12868499755859 26.59990310668945 58.88036346435547 30.44018363952637 58.88036346435547 C 34.28046417236328 58.88036346435547 38.00481414794922 58.12868499755859 41.50977325439453 56.64621353149414 C 44.89617156982422 55.21389389038086 47.93788146972656 53.16297149658203 50.55043411254883 50.55043411254883 C 53.16297149658203 47.93788146972656 55.21389389038086 44.89617156982422 56.64621353149414 41.50977325439453 C 58.12868499755859 38.00481414794922 58.88036346435547 34.28046417236328 58.88036346435547 30.44018363952637 C 58.88036346435547 26.59990310668945 58.12868499755859 22.87555313110352 56.64621353149414 19.3705940246582 C 55.21389389038086 15.98419189453125 53.16297149658203 12.94248199462891 50.55043411254883 10.32993316650391 C 47.93788146972656 7.717391967773438 44.89617156982422 5.666473388671875 41.50977325439453 4.234153747558594 C 38.00481414794922 2.751682281494141 34.28046417236328 2.000003814697266 30.44018363952637 2.000003814697266 M 30.44018363952637 3.814697265625e-06 C 47.25183486938477 3.814697265625e-06 60.88036346435547 13.62853240966797 60.88036346435547 30.44018363952637 C 60.88036346435547 47.25183486938477 47.25183486938477 60.88036346435547 30.44018363952637 60.88036346435547 C 13.62853240966797 60.88036346435547 3.814697265625e-06 47.25183486938477 3.814697265625e-06 30.44018363952637 C 3.814697265625e-06 13.62853240966797 13.62853240966797 3.814697265625e-06 30.44018363952637 3.814697265625e-06 Z" stroke="none" fill="#4a89dc"/>
    </g>
  </g>
</svg>
